<?xml version="1.0" encoding="UTF-8" standalone="no"?>
<!-- Created with Inkscape (http://www.inkscape.org/) -->

<svg
   xmlns:dc="http://purl.org/dc/elements/1.1/"
   xmlns:cc="http://creativecommons.org/ns#"
   xmlns:rdf="http://www.w3.org/1999/02/22-rdf-syntax-ns#"
   xmlns:svg="http://www.w3.org/2000/svg"
   xmlns="http://www.w3.org/2000/svg"
   xmlns:sodipodi="http://sodipodi.sourceforge.net/DTD/sodipodi-0.dtd"
   xmlns:inkscape="http://www.inkscape.org/namespaces/inkscape"
   version="1.1"
   id="svg9"
   width="260.13022"
   height="397.21579"
   viewBox="0 0 260.13022 397.21579"
   sodipodi:docname="BEMRosetta.svg"
   inkscape:version="0.92.4 (5da689c313, 2019-01-14)"
   inkscape:export-filename="C:\Users\yerai\Desktop\BEMRosetta.png"
   inkscape:export-xdpi="500"
   inkscape:export-ydpi="500">
  <metadata
     id="metadata14">
    <rdf:RDF>
      <cc:Work
         rdf:about="">
        <dc:format>image/svg+xml</dc:format>
        <dc:type
           rdf:resource="http://purl.org/dc/dcmitype/StillImage" />
      </cc:Work>
    </rdf:RDF>
  </metadata>
  <defs
     id="defs13" />
  <sodipodi:namedview
     id="namedview11"
     pagecolor="#ffffff"
     bordercolor="#666666"
     borderopacity="1.0"
     inkscape:pageshadow="2"
     inkscape:pageopacity="0.0"
     inkscape:pagecheckerboard="0"
     showgrid="false"
     showguides="true"
     inkscape:guide-bbox="true"
     inkscape:zoom="2.6780986"
     inkscape:cx="118.56435"
     inkscape:cy="172.26231"
     inkscape:window-width="1399"
     inkscape:window-height="1532"
     inkscape:window-x="88"
     inkscape:window-y="88"
     inkscape:window-maximized="0"
     inkscape:current-layer="g15" />
  <g
     inkscape:groupmode="layer"
     inkscape:label="Image"
     id="g15"
     transform="translate(-3.4934983,321.59871)">
    <g
       id="g21848"
       transform="matrix(2.6804569,0,0,2.6804569,56.441148,-215.78637)">
      <path
         style="fill:#377ef0;fill-opacity:1;stroke:#377ef0;stroke-width:1px;stroke-linecap:butt;stroke-linejoin:miter;stroke-opacity:1"
         d="m 3.9935017,60.586088 c 0,-6.628035 0,-17.460302 0,-24.119031 0,-6.658729 1.41e-4,-7.966057 0.213874,-9.124945 0.213733,-1.158888 0.423478,-1.750542 0.933498,-2.613794 0.510021,-0.863252 1.595568,-2.201799 4.655361,-4.984916 3.0597923,-2.783117 9.8041003,-9.192551 13.3378153,-12.2147869 3.533714,-3.0222359 4.112611,-3.5286982 4.877527,-3.8973546 0.764916,-0.3686564 0.757421,-0.3534684 2.053696,-0.466749 1.296275,-0.1132806 4.169683,0.1397975 5.694339,0.2800494 1.524656,0.1402519 2.511553,0.1328021 3.453943,0.466749 0.94239,0.3339469 1.468105,0.6236194 2.147045,1.3068974 0.67894,0.683278 0.725829,0.882813 1.680297,2.8004943 0.954468,1.9176813 4.667492,11.8974614 6.207763,15.8227924 1.540271,3.925332 1.540271,9.373042 1.540271,14.398758 0,5.025716 0,7.051753 0,12.835599 0,5.783845 -1.088119,8.822456 -1.960346,10.618992 -0.872227,1.796536 -2.591875,4.669977 -3.733992,6.254437 -1.142117,1.58446 -1.774971,2.262313 -2.893844,3.360593 -1.118873,1.09828 -2.545822,2.629815 -3.827343,3.173894 -1.281521,0.544079 -2.86666,0.581571 -7.444647,0.606774 -4.577988,0.0252 -10.919379,0.04756 -15.319757,-0.008 -4.400379,-0.05558 -6.2915103,-0.609804 -7.2008853,-1.158873 -0.909374,-0.549069 -1.757753,-1.435405 -2.427095,-2.240396 -0.669341,-0.804991 -1.304724,-1.760079 -1.586946,-2.520445 -0.282223,-0.760366 -0.400574,-1.948704 -0.400574,-8.576739 z"
         id="path540"
         sodipodi:nodetypes="zzzzzzzzzzzzzzzzzzzzzzzzz"
         inkscape:connector-curvature="0" />
      <g
         id="g19015"
         transform="translate(0.66008267,0.92411598)">
        <path
           style="fill:#d7e4fb;fill-opacity:1;stroke:#d7e4fb;stroke-width:0.5;stroke-linecap:butt;stroke-linejoin:miter;stroke-miterlimit:4;stroke-dasharray:none;stroke-opacity:1"
           d="m 10.369435,72.175219 c 0,0 -2.6021293,-1.282435 -3.2281745,-1.906149 C 6.5152153,69.645356 5.829052,68.752995 5.4609639,68.028674 5.0928758,67.304353 4.6205799,66.387863 4.6205799,59.312146 v -21.09335 c 0,-6.722879 0.331304,-11.817319 0.462058,-12.261038 0.130754,-0.443719 0.3394677,-0.960429 0.5775725,-1.402676 C 5.8983152,24.112835 6.2006508,23.700138 6.501816,23.317426 6.8029812,22.934714 6.9708777,22.748115 7.4589361,22.261294 7.9469945,21.774473 6.259855,23.342256 9.4721888,20.446066 12.684523,17.549876 19.569667,11.075317 22.666691,8.3058364 25.763715,5.5363554 27.199718,4.4890658 27.558459,4.2905385 27.9172,4.0920112 28.452325,3.8386947 28.895126,3.7459701 c 0.442801,-0.092725 0.235121,-0.050693 1.27066,-0.033004 1.035539,0.017689 4.86811,0.2970373 4.934119,0.2970373 0.06601,0 2.285806,0.2267141 3.052883,0.5115642 0.767077,0.2848501 1.017079,0.4034402 1.551195,0.940618 0.534116,0.5371778 1.402676,2.3432941 1.402676,2.3432941 0,0 -2.456356,-0.6930189 -3.960497,-0.8746099 C 35.642021,6.7492788 33.180679,6.6351057 32.11303,6.8153553 31.045381,6.9956049 29.79938,7.662181 28.059551,9.1239034 26.319722,10.585626 11.2563,24.386859 9.6762441,25.956016 8.936633,26.68943 8.2965749,27.504932 7.7922946,28.362855 7.6450661,29.619084 7.3929278,32.610107 7.3929278,40.007597 v 18.865101 c 0.1241475,4.268673 0,9.935171 1.2652671,11.746434 1.7206471,1.552863 1.7112401,1.556087 1.7112401,1.556087 z"
           id="path544"
           sodipodi:nodetypes="czzzzzzzzzzzzzzzzczzzcczccc"
           inkscape:connector-curvature="0" />
        <path
           style="fill:none;stroke:#d7e4fb;stroke-width:1px;stroke-linecap:butt;stroke-linejoin:miter;stroke-opacity:1"
           d="m 7.4293184,37.433274 c 2.6910136,-0.968951 7.0004856,-2.787179 8.9625536,-2.756165 6.095285,-0.0093 13.100691,6.193696 19.806176,6.154453 2.683023,-0.0018 7.172125,-2.040645 9.296315,-3.008872"
           id="path546"
           sodipodi:nodetypes="cccc"
           inkscape:connector-curvature="0" />
        <path
           style="fill:none;stroke:#d7e4fb;stroke-width:1px;stroke-linecap:butt;stroke-linejoin:miter;stroke-opacity:1"
           d="m 7.4293184,45.882334 c 2.6910136,-0.968951 7.0004856,-2.787179 8.9625536,-2.756165 6.095285,-0.0093 13.100691,6.193696 19.806176,6.154453 2.683023,-0.0018 7.172125,-2.040645 9.296315,-3.008872"
           id="path546-1"
           sodipodi:nodetypes="cccc"
           inkscape:connector-curvature="0" />
        <path
           style="fill:none;stroke:#d7e4fb;stroke-width:1px;stroke-linecap:butt;stroke-linejoin:miter;stroke-opacity:1"
           d="m 7.429318,54.331394 c 2.691014,-0.968951 7.000486,-2.787179 8.962554,-2.756165 6.095285,-0.0093 13.100691,6.193696 19.806176,6.154453 2.683023,-0.0018 7.172125,-2.040645 9.296315,-3.008872"
           id="path546-4"
           sodipodi:nodetypes="cccc"
           inkscape:connector-curvature="0" />
        <path
           style="fill:none;stroke:#d7e4fb;stroke-width:1px;stroke-linecap:butt;stroke-linejoin:miter;stroke-opacity:1"
           d="m 7.4293184,62.543763 c 2.6910136,-0.968951 7.0004856,-2.787179 8.9625536,-2.756165 6.095285,-0.0093 13.100691,6.193696 19.806176,6.154453 2.683023,-0.0018 7.172125,-2.040645 9.296315,-3.008872"
           id="path546-8"
           sodipodi:nodetypes="cccc"
           inkscape:connector-curvature="0" />
      </g>
    </g>
  </g>
</svg>
