<?xml version="1.0" encoding="UTF-8" standalone="no"?>
<!-- Created with Inkscape (http://www.inkscape.org/) -->

<svg
   width="210mm"
   height="297mm"
   viewBox="0 0 210 297"
   version="1.1"
   id="svg8"
   sodipodi:docname="BEMRosetta.svg"
   inkscape:version="1.4.2 (f4327f4, 2025-05-13)"
   xmlns:inkscape="http://www.inkscape.org/namespaces/inkscape"
   xmlns:sodipodi="http://sodipodi.sourceforge.net/DTD/sodipodi-0.dtd"
   xmlns:xlink="http://www.w3.org/1999/xlink"
   xmlns="http://www.w3.org/2000/svg"
   xmlns:svg="http://www.w3.org/2000/svg"
   xmlns:rdf="http://www.w3.org/1999/02/22-rdf-syntax-ns#"
   xmlns:cc="http://creativecommons.org/ns#"
   xmlns:dc="http://purl.org/dc/elements/1.1/">
  <defs
     id="defs2">
    <linearGradient
       id="linearGradient1"
       inkscape:collect="always">
      <stop
         style="stop-color:#22222f;stop-opacity:1;"
         offset="0"
         id="stop1" />
      <stop
         style="stop-color:#000000;stop-opacity:0;"
         offset="1"
         id="stop2" />
    </linearGradient>
    <linearGradient
       inkscape:collect="always"
       id="linearGradient992">
      <stop
         style="stop-color:#008dad;stop-opacity:1;"
         offset="0"
         id="stop988" />
      <stop
         style="stop-color:#f8feff;stop-opacity:1"
         offset="1"
         id="stop990" />
    </linearGradient>
    <linearGradient
       inkscape:collect="always"
       id="linearGradient980">
      <stop
         style="stop-color:#ffffff;stop-opacity:1"
         offset="0"
         id="stop976" />
      <stop
         style="stop-color:#52f0ff;stop-opacity:1"
         offset="1"
         id="stop978" />
    </linearGradient>
    <linearGradient
       id="linearGradient960"
       inkscape:collect="always">
      <stop
         id="stop956"
         offset="0"
         style="stop-color:#616161;stop-opacity:1" />
      <stop
         id="stop958"
         offset="1"
         style="stop-color:#2b17ff;stop-opacity:0" />
    </linearGradient>
    <linearGradient
       inkscape:collect="always"
       id="linearGradient944">
      <stop
         style="stop-color:#4331ff;stop-opacity:1"
         offset="0"
         id="stop940" />
      <stop
         style="stop-color:#fdfdff;stop-opacity:0.94897962"
         offset="1"
         id="stop942" />
    </linearGradient>
    <linearGradient
       inkscape:collect="always"
       id="linearGradient2397">
      <stop
         style="stop-color:#66d915;stop-opacity:1"
         offset="0"
         id="stop2393" />
      <stop
         style="stop-color:#82ec37;stop-opacity:0;"
         offset="1"
         id="stop2395" />
    </linearGradient>
    <linearGradient
       inkscape:collect="always"
       id="linearGradient2383">
      <stop
         style="stop-color:#ffecfe;stop-opacity:0"
         offset="0"
         id="stop2379" />
      <stop
         style="stop-color:#00b7e0;stop-opacity:0.96862745"
         offset="1"
         id="stop2381" />
    </linearGradient>
    <filter
       style="color-interpolation-filters:sRGB;"
       inkscape:label="Blend"
       id="filter1129">
      <feBlend
         in2="BackgroundImage"
         mode="multiply"
         result="fbSourceGraphic"
         id="feBlend1127" />
      <feColorMatrix
         result="fbSourceGraphicAlpha"
         in="fbSourceGraphic"
         values="0 0 0 -1 0 0 0 0 -1 0 0 0 0 -1 0 0 0 0 1 0"
         id="feColorMatrix1135" />
      <feBlend
         in2="BackgroundImage"
         id="feBlend1137"
         mode="multiply"
         result="blend"
         in="fbSourceGraphic" />
    </filter>
    <filter
       style="color-interpolation-filters:sRGB;"
       inkscape:label="Blend"
       id="filter1133">
      <feBlend
         in2="BackgroundImage"
         mode="multiply"
         result="fbSourceGraphic"
         id="feBlend1131" />
      <feColorMatrix
         result="fbSourceGraphicAlpha"
         in="fbSourceGraphic"
         values="0 0 0 -1 0 0 0 0 -1 0 0 0 0 -1 0 0 0 0 1 0"
         id="feColorMatrix1139" />
      <feBlend
         in2="BackgroundImage"
         id="feBlend1141"
         mode="multiply"
         result="blend"
         in="fbSourceGraphic" />
    </filter>
    <radialGradient
       inkscape:collect="always"
       xlink:href="#linearGradient2383"
       id="radialGradient2391"
       gradientUnits="userSpaceOnUse"
       gradientTransform="matrix(1.4540065,0.01149374,-0.0089763,1.13554,-172.71109,-124.04698)"
       cx="395.1499"
       cy="705.90997"
       fx="395.1499"
       fy="705.90997"
       r="88.786674" />
    <linearGradient
       inkscape:collect="always"
       xlink:href="#linearGradient2397"
       id="linearGradient2401"
       x1="392.92111"
       y1="789.25684"
       x2="414.81854"
       y2="618.23621"
       gradientUnits="userSpaceOnUse" />
    <linearGradient
       inkscape:collect="always"
       xlink:href="#linearGradient944"
       id="linearGradient946"
       x1="-172.24207"
       y1="839.10455"
       x2="-167.30949"
       y2="1234.3199"
       gradientUnits="userSpaceOnUse"
       gradientTransform="matrix(0.22427186,0,0,0.22427186,101.46355,-140.74218)" />
    <linearGradient
       inkscape:collect="always"
       xlink:href="#linearGradient960"
       id="linearGradient954"
       x1="-361.41772"
       y1="1007.2617"
       x2="-38.588947"
       y2="1151.5822"
       gradientUnits="userSpaceOnUse"
       gradientTransform="matrix(0.22427186,0,0,0.22427186,101.46355,-140.74218)" />
    <radialGradient
       inkscape:collect="always"
       xlink:href="#linearGradient980"
       id="radialGradient986"
       cx="-172.68149"
       cy="970.93231"
       fx="-172.68149"
       fy="970.93231"
       r="188.12477"
       gradientTransform="matrix(0.32620113,-0.00313004,0.00280807,0.2926453,116.33842,-223.29992)"
       gradientUnits="userSpaceOnUse" />
    <linearGradient
       inkscape:collect="always"
       xlink:href="#linearGradient992"
       id="linearGradient994"
       x1="-178.32695"
       y1="885.42316"
       x2="-184.035"
       y2="1078.0909"
       gradientUnits="userSpaceOnUse"
       gradientTransform="matrix(0.22427186,0,0,0.22548698,101.46355,-141.99509)" />
    <linearGradient
       inkscape:collect="always"
       xlink:href="#linearGradient1"
       id="linearGradient4"
       x1="65.33452"
       y1="31.867413"
       x2="241.51601"
       y2="31.867413"
       gradientUnits="userSpaceOnUse"
       gradientTransform="translate(-1.0583333,0.26458333)" />
  </defs>
  <sodipodi:namedview
     id="base"
     pagecolor="#ffffff"
     bordercolor="#666666"
     borderopacity="1.0"
     inkscape:pageopacity="0.0"
     inkscape:pageshadow="2"
     inkscape:zoom="1"
     inkscape:cx="527.49999"
     inkscape:cy="291.49999"
     inkscape:document-units="mm"
     inkscape:current-layer="layer1"
     showgrid="false"
     inkscape:window-width="1920"
     inkscape:window-height="1057"
     inkscape:window-x="-8"
     inkscape:window-y="-8"
     inkscape:window-maximized="1"
     showguides="true"
     inkscape:showpageshadow="2"
     inkscape:pagecheckerboard="0"
     inkscape:deskcolor="#d1d1d1" />
  <metadata
     id="metadata5">
    <rdf:RDF>
      <cc:Work
         rdf:about="">
        <dc:format>image/svg+xml</dc:format>
        <dc:type
           rdf:resource="http://purl.org/dc/dcmitype/StillImage" />
        <dc:title />
      </cc:Work>
    </rdf:RDF>
  </metadata>
  <g
     inkscape:label="Layer 1"
     inkscape:groupmode="layer"
     id="layer1">
    <path
       style="opacity:0.998235;fill:#1ad5ff;fill-opacity:0.968627;stroke:none;stroke-width:0.0865017;stroke-linecap:round;stroke-linejoin:round;stroke-miterlimit:4;stroke-dasharray:none;stroke-dashoffset:0;stroke-opacity:0.184314;paint-order:markers stroke fill"
       d="M 80.405315,62.126723 C 79.979958,61.93094 79.605141,60.862412 79.180423,59.374763 78.811783,58.083519 77.300004,55.442035 76.683727,54.421651 75.744092,52.865868 75.909551,52.71455 74.976212,49.280226 74.364066,47.027781 73.59002,44.648424 73.256101,43.992769 l -0.882385,-1.482026 0.789281,-0.246683 c 0.282713,-0.295122 1.17979,-2.072639 1.522857,-2.663852 0.45081,-0.776901 0.303405,0.0076 0.767472,-0.08702 0,0 0.969768,-0.429115 1.821937,-1.324653 l 1.251093,-1.596075 0.292027,0.789265 c 0.386552,1.016705 0.694718,4.258734 0.697635,7.33939 0.0044,4.299388 0.628184,15.414809 0.923583,16.448833 0.269172,0.942313 0.341015,1.429282 -0.03424,0.956765 z"
       id="path916"
       inkscape:connector-curvature="0"
       sodipodi:nodetypes="cscsccccscccscc"
       inkscape:export-xdpi="565.74994"
       inkscape:export-ydpi="565.74994"
       inkscape:export-filename="C:\Users\izaba\OneDrive\Desktop\path916.png" />
    <path
       style="opacity:0.998235;fill:#00b7e0;fill-opacity:1;stroke:#2b17ff;stroke-width:0.0847641;stroke-linecap:round;stroke-linejoin:round;stroke-miterlimit:4;stroke-dasharray:none;stroke-dashoffset:0;stroke-opacity:0;paint-order:markers stroke fill"
       d="m 42.820082,69.6117 c 0.03383,-0.424274 0.242657,-4.167563 0.464073,-8.318419 0.286072,-5.362946 0.460976,-7.600521 0.604351,-7.731943 0.110981,-0.101737 1.589073,-1.192944 3.284665,-2.424952 1.115046,-0.810181 2.005111,-1.617498 3.014285,-2.249369 1.993601,-1.24824 4.120851,-2.157968 7.04699,-3.476132 0.974735,-0.439096 1.648101,-0.863195 2.401877,-1.128747 0.97522,-0.343559 2.05771,-0.503812 3.817419,-0.941041 l 3.622914,-0.900178 2.594988,0.111026 2.678114,-0.04099 0.731764,1.466444 c 0.472908,0.937921 0.832419,2.498507 1.633963,5.447937 1.103368,4.06 1.143495,4.167214 2.256751,6.030489 0.721051,1.206823 1.251514,1.908437 1.80915,3.384244 0.647234,1.712933 1.223834,3.304582 1.637339,3.73423 l 0.560002,0.581861 0.116211,3.613464 0.116173,3.613464 H 61.984859 47.869379 42.758591 Z"
       id="path912"
       inkscape:connector-curvature="0"
       sodipodi:nodetypes="sscsssssccccssccccccccs"
       inkscape:export-xdpi="96"
       inkscape:export-ydpi="96" />
    <path
       style="opacity:0.998235;fill:#71e4ff;fill-opacity:0.968627;stroke:none;stroke-width:0.0865017;stroke-linecap:round;stroke-linejoin:round;stroke-miterlimit:4;stroke-dasharray:none;stroke-dashoffset:0;stroke-opacity:1;paint-order:markers stroke fill"
       d="m 45.037078,51.650424 c 0.712226,-1.222182 2.961298,-3.001562 5.571513,-4.407971 1.106848,-0.59638 3.660308,-2.167163 5.674361,-3.490635 4.686515,-3.079593 7.662985,-4.386128 13.96102,-6.128248 4.752949,-1.314731 7.070408,-1.707638 7.768326,-1.317066 0.514058,0.285972 0.407018,0.52126 -0.559836,1.606046 -0.491995,0.552009 -0.887981,1.00814 -1.364957,1.236722 -0.229981,0.110226 -0.489775,0.12908 -0.767411,0.153266 -0.168935,0.07928 -0.416363,0.178384 -0.593782,0.448716 -0.488719,0.744607 -0.964379,2.081368 -1.768343,2.474088 l -0.584253,0.285407 -2.592387,-0.140059 c -2.800674,-0.151304 -3.549295,0.01497 -6.61291,0.774699 -5.35605,1.32848 -10.65543,3.88856 -15.617918,7.476869 -1.541138,1.114374 -2.951145,2.16269 -3.022084,2.16269 -0.07092,0 0.196881,-0.599549 0.508661,-1.13453 z"
       id="path914"
       inkscape:connector-curvature="0"
       sodipodi:nodetypes="ccssccscsscssssc"
       inkscape:export-xdpi="96"
       inkscape:export-ydpi="96" />
    <path
       style="opacity:0.998235;fill:url(#radialGradient986);fill-opacity:1;stroke:#ffe317;stroke-width:0.0611661;stroke-linecap:round;stroke-linejoin:round;stroke-miterlimit:4;stroke-dasharray:none;stroke-dashoffset:0;stroke-opacity:0.184314;paint-order:markers stroke fill"
       d="m 20.418607,46.845192 c 0.003,-11.184488 0.06879,-19.385888 0.161351,-20.099129 0.178316,-1.374022 0.852598,-2.956671 1.700571,-3.991506 0.766513,-0.935431 2.328647,-1.943317 3.616032,-2.333057 1.060151,-0.320938 1.447857,-0.323898 37.079644,-0.281482 l 36.008283,0.04284 0.929008,0.375178 c 1.907554,0.770365 3.589634,2.451505 4.358604,4.356199 l 0.37661,0.932848 0.043,19.946163 0.043,19.946162 H 92.999141 81.263609 V 64.39596 c 0,-0.963346 -0.114937,-1.730296 -0.40618,-2.710736 -0.349198,-1.175465 -0.44048,-1.991654 -0.650626,-5.817748 -0.134438,-2.447752 -0.311591,-6.962951 -0.393679,-10.033768 -0.147245,-5.508687 -0.378886,-7.894238 -0.862016,-8.877595 -0.572897,-1.166045 -2.18289,-1.454985 -4.362212,-0.782866 -0.734868,0.226655 -3.120354,0.887702 -5.301074,1.469031 -5.315874,1.417089 -8.436402,2.749415 -11.961632,5.107095 -3.072358,2.054787 -5.480369,3.54536 -6.819942,4.221574 -1.51562,0.765083 -3.836905,2.366761 -4.680313,3.229396 -0.402848,0.412036 -1.07601,1.327714 -1.495919,2.034839 l -0.763473,1.285691 -0.328921,5.883776 c -0.18091,3.236078 -0.328921,5.985246 -0.328921,6.10927 0,0.190625 -1.740202,0.22549 -11.247531,0.22549 H 20.413594 Z"
       id="path974"
       inkscape:connector-curvature="0"
       inkscape:export-xdpi="96"
       inkscape:export-ydpi="96" />
    <path
       style="fill:none;stroke:#000000;stroke-width:0.254294;stroke-linecap:butt;stroke-linejoin:miter;stroke-miterlimit:4;stroke-dasharray:none;stroke-opacity:1"
       d="m 81.094194,62.944865 -1.114236,-1.013925 -1.699264,-4.571831 -2.346611,-3.964964 -2.184772,-8.09175 -1.375595,-2.791652 0.71005,-0.221333 1.602088,-2.68921 1.487646,-0.371911 0.03576,-0.04009 2.317062,-2.595726"
       id="path93"
       inkscape:connector-curvature="0"
       sodipodi:nodetypes="ccccccccccc"
       inkscape:export-xdpi="96"
       inkscape:export-ydpi="96" />
    <path
       style="fill:none;stroke:#000000;stroke-width:0.254294;stroke-linecap:butt;stroke-linejoin:miter;stroke-miterlimit:4;stroke-dasharray:none;stroke-opacity:1"
       d="m 72.373716,42.510743 -5.421474,-0.161817 -7.282582,1.82064 -5.219171,2.387068 -4.207711,2.225231 -4.410004,3.236701 -2.158704,1.542675"
       id="path95"
       inkscape:connector-curvature="0"
       inkscape:export-xdpi="96"
       inkscape:export-ydpi="96" />
    <path
       style="fill:none;stroke:#000000;stroke-width:0.255986;stroke-linecap:butt;stroke-linejoin:miter;stroke-miterlimit:4;stroke-dasharray:none;stroke-opacity:1"
       d="M 20.410999,65.832481 H 43.122036"
       id="path101"
       inkscape:connector-curvature="0"
       inkscape:export-xdpi="96"
       inkscape:export-ydpi="96" />
    <path
       style="fill:none;stroke:#000000;stroke-width:0.255986;stroke-linecap:butt;stroke-linejoin:miter;stroke-miterlimit:4;stroke-dasharray:none;stroke-opacity:1"
       d="M 81.102686,65.832481 H 104.94895"
       id="path105"
       inkscape:connector-curvature="0"
       inkscape:export-xdpi="96"
       inkscape:export-ydpi="96" />
    <path
       style="opacity:0.998235;fill:url(#linearGradient994);fill-opacity:1;stroke:none;stroke-width:0.0867356;stroke-linecap:round;stroke-linejoin:round;stroke-miterlimit:4;stroke-dasharray:none;stroke-dashoffset:0;stroke-opacity:1;paint-order:markers stroke fill"
       d="M 47.879831,90.2813 C 47.286212,90.114161 45.815673,89.790872 44.611961,89.562948 42.649283,89.191275 42.40911,89.091254 42.284952,88.593873 42.132217,87.98204 42.596973,72.904922 42.816688,71.344355 L 42.954351,70.36639 H 62.003693 L 81.323037,70.2741 81.19858,71.434012 c 0.08001,0.587185 0.145547,2.391351 0.145547,4.009257 0,1.625616 0.383624,2.372338 0.140625,3.006933 -0.247748,0.646952 -1.133248,1.178499 -2.312852,2.525567 -2.189508,2.50037 -6.820074,5.839299 -9.491299,6.843816 -1.854337,0.697319 -2.853467,1.068681 -7.179117,1.24399 -0.780018,0.0316 -1.729544,0.04245 -2.671055,-0.08656 -5.647281,0.186033 -6.206914,0.243256 -8.124859,0.830554 -2.736717,0.838026 -2.594618,0.820414 -3.825733,0.473748 z"
       id="path918"
       inkscape:connector-curvature="0"
       sodipodi:nodetypes="scscccccssscscss"
       inkscape:export-xdpi="96"
       inkscape:export-ydpi="96" />
    <path
       style="opacity:0.998235;fill:url(#linearGradient946);fill-opacity:1;stroke:url(#linearGradient954);stroke-width:0.0611661;stroke-linecap:round;stroke-linejoin:round;stroke-miterlimit:4;stroke-dasharray:none;stroke-dashoffset:0;stroke-opacity:1;paint-order:markers stroke fill"
       d="m 26.119463,104.08456 c -2.723838,-0.73247 -4.842816,-3.01693 -5.448383,-5.873882 -0.185869,-0.876882 -0.227688,-3.902775 -0.229984,-16.648286 l -0.0027,-15.576614 h 11.223226 11.22323 l -0.06574,1.254223 c -0.03616,0.689821 -0.167772,2.601499 -0.292461,4.248169 -0.124694,1.64667 -0.316844,6.218464 -0.427012,10.159545 -0.196514,7.030313 -0.194352,7.171563 0.115612,7.481549 0.223994,0.223959 0.938485,0.433242 2.455005,0.718993 1.176486,0.221698 2.686778,0.543386 3.356206,0.714891 l 1.217134,0.311788 1.684211,-0.546152 c 2.681738,-0.869585 4.026331,-1.038826 8.250799,-1.038463 7.686422,0 10.241176,-0.556536 14.131137,-3.08195 3.254734,-2.113016 5.271465,-3.932444 7.885484,-7.113974 l 0.465379,-0.566423 -0.106754,-4.612299 C 81.495102,71.37891 81.40062,68.556915 81.343863,67.644572 L 81.240657,65.98576 h 11.756876 l 11.282207,-0.114376 0.47467,0.114376 -0.004,15.900292 c -0.002,10.131793 -0.0633,16.157934 -0.16767,16.610449 -0.62108,2.694059 -3.07496,5.097389 -5.783767,5.664599 -0.614068,0.12858 -10.931441,0.17654 -36.331957,0.16893 -30.466391,-0.009 -35.597624,-0.0437 -36.347521,-0.24546 z"
       id="path938"
       inkscape:connector-curvature="0"
       sodipodi:nodetypes="ccscccccsccccccccccccccccccccc"
       inkscape:export-xdpi="96"
       inkscape:export-ydpi="96" />
    <path
       style="fill:none;stroke:#000000;stroke-width:0.678113;stroke-linecap:butt;stroke-linejoin:miter;stroke-miterlimit:4;stroke-dasharray:none;stroke-opacity:1"
       d="m 42.758591,70.383114 0.915479,-16.82189 1.932098,-3.109965 c 0,0 2.590945,-2.268458 5.048412,-3.41281 2.227365,-1.037199 9.040331,-5.721732 9.040331,-5.721732 0,0 0.717962,-0.36051 1.507879,-0.70684 2.555911,-1.120573 0,0 4.234087,-1.830956 5.607296,-1.487646 1.454843,-0.33486 6.388108,-1.696283 1.19154,-0.328823 2.468173,-0.666373 2.468173,-0.666373 0,0 2.354743,-1.170331 4.134328,-0.02727 1.56735,1.006811 1.293484,11.908146 1.293484,11.908146 l 0.572178,11.78676 0.801046,2.860866 0.228851,7.438253"
       id="path91"
       inkscape:connector-curvature="0"
       sodipodi:nodetypes="cccscscscscccc"
       inkscape:export-xdpi="96"
       inkscape:export-ydpi="96" />
    <path
       style="fill:none;stroke:#ffffff;stroke-width:0.0847641;stroke-linecap:butt;stroke-linejoin:miter;stroke-miterlimit:4;stroke-dasharray:none;stroke-opacity:1"
       d="M 20.384218,73.150496 H 105.3476"
       id="path1000"
       inkscape:connector-curvature="0"
       inkscape:export-xdpi="96"
       inkscape:export-ydpi="96" />
    <path
       style="fill:none;stroke:#ffffff;stroke-width:0.0847641;stroke-linecap:butt;stroke-linejoin:miter;stroke-miterlimit:4;stroke-dasharray:none;stroke-opacity:1"
       d="M 20.384218,71.887131 H 105.3476"
       id="path1000-3"
       inkscape:connector-curvature="0"
       inkscape:export-xdpi="96"
       inkscape:export-ydpi="96" />
    <path
       style="fill:none;stroke:#ffffff;stroke-width:0.0847641;stroke-linecap:butt;stroke-linejoin:miter;stroke-miterlimit:4;stroke-dasharray:none;stroke-opacity:1"
       d="M 20.417396,75.299676 H 105.38077"
       id="path1000-3-6"
       inkscape:connector-curvature="0"
       inkscape:export-xdpi="96"
       inkscape:export-ydpi="96" />
    <path
       style="fill-opacity:1;stroke:#ffffff;stroke-width:0.0847641;stroke-linecap:butt;stroke-linejoin:miter;stroke-miterlimit:4;stroke-dasharray:none;stroke-opacity:1"
       d="M 20.384086,87.635167 H 105.34745"
       id="path1000-3-4"
       inkscape:connector-curvature="0"
       inkscape:export-xdpi="96"
       inkscape:export-ydpi="96" />
    <path
       style="fill:none;stroke:#ffffff;stroke-width:0.0847641;stroke-linecap:butt;stroke-linejoin:miter;stroke-miterlimit:4;stroke-dasharray:none;stroke-opacity:1"
       d="M 20.384086,81.854154 H 105.34745"
       id="path1000-3-0"
       inkscape:connector-curvature="0"
       inkscape:export-xdpi="96"
       inkscape:export-ydpi="96" />
    <path
       style="fill:none;stroke:#ffffff;stroke-width:0.0847641;stroke-linecap:butt;stroke-linejoin:miter;stroke-miterlimit:4;stroke-dasharray:none;stroke-opacity:1"
       d="M 20.384086,77.817237 H 105.34745"
       id="path1000-3-9"
       inkscape:connector-curvature="0"
       inkscape:export-xdpi="96"
       inkscape:export-ydpi="96" />
    <path
       style="fill-opacity:1;stroke:#ffffff;stroke-width:0.0847641;stroke-linecap:butt;stroke-linejoin:miter;stroke-miterlimit:4;stroke-dasharray:none;stroke-opacity:1"
       d="M 20.384086,97.137372 H 105.34746"
       id="path1000-3-4-1"
       inkscape:connector-curvature="0"
       inkscape:export-xdpi="96"
       inkscape:export-ydpi="96" />
    <path
       style="fill-opacity:1;stroke:#ffffff;stroke-width:0.441433;stroke-linecap:butt;stroke-linejoin:miter;stroke-miterlimit:4;stroke-dasharray:none;stroke-opacity:1"
       d="M 42.132234,87.657137 H 69.935727"
       id="path1000-3-4-1-1"
       inkscape:connector-curvature="0"
       inkscape:export-xdpi="96"
       inkscape:export-ydpi="96" />
    <path
       style="fill-opacity:1;stroke:#ffffff;stroke-width:0.503204;stroke-linecap:butt;stroke-linejoin:miter;stroke-miterlimit:4;stroke-dasharray:none;stroke-opacity:1"
       d="M 42.245691,81.855192 H 78.374308"
       id="path1000-3-4-1-1-0"
       inkscape:connector-curvature="0"
       inkscape:export-xdpi="96"
       inkscape:export-ydpi="96" />
    <path
       style="fill-opacity:1;stroke:#ffffff;stroke-width:0.522941;stroke-linecap:butt;stroke-linejoin:miter;stroke-miterlimit:4;stroke-dasharray:none;stroke-opacity:1"
       d="M 42.445951,77.821373 H 81.464045"
       id="path1000-3-4-1-1-1"
       inkscape:connector-curvature="0"
       inkscape:export-xdpi="96"
       inkscape:export-ydpi="96" />
    <path
       style="fill-opacity:1;stroke:#ffffff;stroke-width:0.522362;stroke-linecap:butt;stroke-linejoin:miter;stroke-miterlimit:4;stroke-dasharray:none;stroke-opacity:1"
       d="M 42.474563,75.246586 H 81.40683"
       id="path1000-3-4-1-1-12"
       inkscape:connector-curvature="0"
       inkscape:export-xdpi="96"
       inkscape:export-ydpi="96" />
    <path
       style="fill-opacity:1;stroke:#ffffff;stroke-width:0.435689;stroke-linecap:butt;stroke-linejoin:miter;stroke-miterlimit:4;stroke-dasharray:none;stroke-opacity:1"
       d="M 42.67482,73.138748 H 81.349605"
       id="path1000-3-4-1-1-6"
       inkscape:connector-curvature="0"
       inkscape:export-xdpi="96"
       inkscape:export-ydpi="96" />
    <path
       style="fill-opacity:1;stroke:#ffffff;stroke-width:0.350922;stroke-linecap:butt;stroke-linejoin:miter;stroke-miterlimit:4;stroke-dasharray:none;stroke-opacity:1"
       d="M 42.674822,71.86055 H 81.263784"
       id="path1000-3-4-1-1-2"
       inkscape:connector-curvature="0"
       inkscape:export-xdpi="96"
       inkscape:export-ydpi="96" />
    <path
       style="fill:none;stroke:#090068;stroke-width:0.339055;stroke-linecap:butt;stroke-linejoin:miter;stroke-miterlimit:4;stroke-dasharray:none;stroke-opacity:1"
       d="m 42.758591,70.383114 -0.25746,2.946691 -0.157358,3.676214 -0.314683,10.928508 0.0143,0.829649 0.457738,0.557872 4.305603,0.801029 2.388822,0.629403 2.574778,-0.858274 1.92399,-0.441554 2.348098,-0.342718 6.284509,0.112019 5.447496,-0.555408 1.147087,-0.392706 2.302711,-0.839909 4.191163,-2.760746 2.860866,-2.388822 1.800463,-2.062498 1.246362,-1.427764 0.24319,-0.74382 -0.157358,-5.50717 -0.08583,-2.159985"
       id="path97"
       inkscape:connector-curvature="0"
       sodipodi:nodetypes="cccccccccccccccccccccc"
       inkscape:export-xdpi="96"
       inkscape:export-ydpi="96" />
    <rect
       style="opacity:0.998235;fill:none;fill-opacity:0.968627;stroke:#000000;stroke-width:2.01823;stroke-linecap:round;stroke-linejoin:round;stroke-miterlimit:4;stroke-dasharray:none;stroke-dashoffset:0;stroke-opacity:1;paint-order:markers stroke fill"
       id="rect922"
       width="84.611115"
       height="84.61113"
       x="20.337437"
       y="19.899015"
       ry="7.7680802"
       rx="7.7680802"
       inkscape:export-xdpi="96"
       inkscape:export-ydpi="96" />
    <path
       style="fill:none;stroke:#000000;stroke-width:0.0847641;stroke-linecap:butt;stroke-linejoin:miter;stroke-miterlimit:4;stroke-dasharray:none;stroke-opacity:1"
       d="M 42.758591,70.383114 H 81.323055"
       id="path89"
       inkscape:connector-curvature="0"
       inkscape:export-xdpi="96"
       inkscape:export-ydpi="96" />
    <text
       xml:space="preserve"
       style="font-size:26.8211px;text-align:start;writing-mode:lr-tb;direction:ltr;text-anchor:start;mix-blend-mode:normal;fill:#f9f9f9;fill-opacity:1;stroke-width:0.807367;stroke-dasharray:none"
       x="8.2292118"
       y="74.106842"
       id="text1"><tspan
         sodipodi:role="line"
         id="tspan1"
         style="font-style:normal;font-variant:normal;font-weight:bold;font-stretch:normal;font-size:26.8211px;font-family:'Fira Sans';-inkscape-font-specification:'Fira Sans Bold';fill:#f9f9f9;fill-opacity:1;stroke:#000000;stroke-width:0.807367;stroke-dasharray:none;stroke-opacity:1"
         x="8.2292118"
         y="74.106842">BEMRosetta</tspan></text>
  </g>
</svg>
